<svg width="22" height="22" viewBox="0 0 22 22" fill="none" xmlns="http://www.w3.org/2000/svg">
<path d="M12.375 1.83333C12.375 1.83333 14.5145 2.02766 17.2361 4.75016C19.9586 7.47266 20.1529 9.61124 20.1529 9.61124M13.0231 5.07466C13.0231 5.07466 13.9306 5.33316 15.2918 6.69441C16.6531 8.05566 16.9125 8.96316 16.9125 8.96316" stroke="black" stroke-width="0.75" stroke-linecap="round"/>
<path d="M14.3413 14.2478L14.7583 13.8077L13.761 12.8608L13.3439 13.3018L14.3413 14.2478ZM16.1324 13.6226L17.8833 14.6318L18.5698 13.4392L16.8181 12.4309L16.1324 13.6226ZM18.2215 16.7209L16.9198 18.0913L17.9163 19.0392L19.2179 17.6687L18.2215 16.7209ZM16.1361 18.5313C14.8207 18.6606 11.3878 18.5506 7.66242 14.6291L6.666 15.5751C10.7259 19.8495 14.5988 20.0658 16.2708 19.8999L16.1361 18.5313ZM7.66242 14.6291C4.10942 10.8882 3.51358 7.73208 3.43933 6.34792L2.06617 6.42217C2.15783 8.118 2.8765 11.5857 6.666 15.5751L7.66242 14.6291ZM8.92375 8.54425L9.18592 8.26742L8.1895 7.3205L7.92642 7.59733L8.92375 8.54425ZM9.39308 4.82075L8.23717 3.18725L7.11425 3.98108L8.26925 5.6155L9.39308 4.82075ZM4.32392 2.83342L2.88658 4.34958L3.88392 5.2965L5.32308 3.78125L4.32392 2.83342ZM8.42508 8.07033C8.26011 7.91133 8.09358 7.75396 7.9255 7.59825L7.92367 7.60008L7.92092 7.60283L7.87508 7.656C7.78533 7.775 7.71423 7.90699 7.66425 8.04742C7.57442 8.2995 7.52675 8.63317 7.58725 9.04933C7.70642 9.867 8.24267 10.9661 9.64242 12.441L10.6398 11.4932C9.33075 10.1154 9.00808 9.2675 8.94758 8.8495C8.91825 8.64783 8.94759 8.54242 8.9595 8.5085L8.96683 8.49108L8.94117 8.525L8.92467 8.54333C8.92467 8.54333 8.92283 8.54333 8.42508 8.07033ZM9.64242 12.441C11.0385 13.9113 12.0927 14.4879 12.8966 14.619C13.31 14.6859 13.6446 14.6318 13.8976 14.5319C14.0379 14.4772 14.1683 14.3998 14.2835 14.3027L14.3165 14.2716L14.3293 14.2588L14.3358 14.2533L14.3385 14.2505L14.3394 14.2487C14.3394 14.2487 14.3413 14.2478 13.8426 13.7738C13.3439 13.3008 13.3448 13.2999 13.3448 13.299L13.3467 13.2981L13.3485 13.2953L13.3531 13.2907L13.3623 13.2816L13.3962 13.2522C13.4053 13.2474 13.4041 13.2477 13.3925 13.2532C13.3742 13.2605 13.2917 13.2898 13.1175 13.2614C12.749 13.2009 11.9533 12.8764 10.6398 11.4932L9.64242 12.441ZM8.23717 3.18725C7.30767 1.87275 5.44867 1.65 4.32483 2.83433L5.32033 3.78125C5.79975 3.27708 6.64492 3.3165 7.11425 3.98108L8.23717 3.18725ZM3.43933 6.34792C3.41917 5.98125 3.57958 5.6155 3.88392 5.2965L2.88658 4.34958C2.39525 4.86658 2.02125 5.58433 2.06617 6.42217L3.43933 6.34792ZM16.9189 18.0922C16.6632 18.3617 16.3964 18.5057 16.1361 18.5313L16.2708 19.8999C16.9556 19.833 17.5102 19.4672 17.9163 19.0392L16.9189 18.0922ZM9.18592 8.26833C10.0733 7.33425 10.1356 5.87308 9.39308 4.82167L8.27017 5.6155C8.657 6.16275 8.59742 6.8915 8.1895 7.3205L9.18592 8.26833ZM17.8833 14.6318C18.6358 15.0654 18.7834 16.1306 18.2215 16.7218L19.2179 17.6687C20.4142 16.4092 20.0658 14.3009 18.5698 13.4392L17.8833 14.6318ZM14.7583 13.8087C15.1113 13.4365 15.6622 13.3531 16.1324 13.6235L16.8181 12.4318C15.8107 11.8525 14.5631 12.0193 13.761 12.8627L14.7583 13.8087Z" fill="black"/>
</svg>
