<svg width="20" height="20" viewBox="0 0 20 20" fill="none" xmlns="http://www.w3.org/2000/svg">
<path d="M12.5 17.5L7.5 15.75L3.625 17.25C3.34722 17.3611 3.09028 17.33 2.85417 17.1567C2.61806 16.9833 2.5 16.7506 2.5 16.4583V4.79167C2.5 4.61111 2.55222 4.45139 2.65667 4.3125C2.76111 4.17361 2.90333 4.06944 3.08333 4L7.5 2.5L12.5 4.25L16.375 2.75C16.6528 2.63889 16.9097 2.67028 17.1458 2.84417C17.3819 3.01806 17.5 3.25056 17.5 3.54167V15.2083C17.5 15.3889 17.4481 15.5486 17.3442 15.6875C17.2403 15.8264 17.0978 15.9306 16.9167 16L12.5 17.5ZM11.6667 15.4583V5.70833L8.33333 4.54167V14.2917L11.6667 15.4583ZM13.3333 15.4583L15.8333 14.625V4.75L13.3333 5.70833V15.4583ZM4.16667 15.25L6.66667 14.2917V4.54167L4.16667 5.375V15.25Z" fill="black"/>
</svg>
