<svg width="22" height="22" viewBox="0 0 22 22" fill="none" xmlns="http://www.w3.org/2000/svg">
<path d="M4.58333 19.25C4.07917 19.25 3.64772 19.0706 3.289 18.7119C2.93028 18.3532 2.75061 17.9214 2.75 17.4167V4.58334C2.75 4.07917 2.92967 3.64773 3.289 3.289C3.64833 2.93028 4.07978 2.75061 4.58333 2.75H12.7646L10.9312 4.58334H4.58333V17.4167H17.4167V11.0458L19.25 9.2125V17.4167C19.25 17.9208 19.0706 18.3526 18.7119 18.7119C18.3532 19.0713 17.9214 19.2506 17.4167 19.25H4.58333ZM8.25 13.75V9.85417L16.6604 1.44375C16.8437 1.26042 17.05 1.12292 17.2792 1.03125C17.5083 0.939586 17.7375 0.893753 17.9667 0.893753C18.2111 0.893753 18.4443 0.939586 18.6661 1.03125C18.8879 1.12292 19.0902 1.26042 19.2729 1.44375L20.5562 2.75C20.7243 2.93334 20.8542 3.13592 20.9458 3.35775C21.0375 3.57959 21.0833 3.80478 21.0833 4.03334C21.0833 4.26189 21.0415 4.48739 20.9578 4.70984C20.874 4.93228 20.7402 5.13456 20.5562 5.31667L12.1458 13.75H8.25ZM10.0833 11.9167H11.3667L16.6833 6.6L16.0417 5.95834L15.3771 5.31667L10.0833 10.6104V11.9167Z" fill="black"/>
</svg>
