<svg width="20" height="20" viewBox="0 0 20 20" fill="none" xmlns="http://www.w3.org/2000/svg">
<path d="M10.0002 5.41667C11.5324 5.41157 13.0351 5.83899 14.3353 6.64977C15.6355 7.46056 16.6805 8.6218 17.3502 10C15.9752 12.8083 13.1668 14.5833 10.0002 14.5833C6.8335 14.5833 4.02516 12.8083 2.65016 10C3.31984 8.6218 4.36486 7.46056 5.66506 6.64977C6.96527 5.83899 8.46788 5.41157 10.0002 5.41667ZM10.0002 3.75C5.8335 3.75 2.27516 6.34167 0.833496 10C2.27516 13.6583 5.8335 16.25 10.0002 16.25C14.1668 16.25 17.7252 13.6583 19.1668 10C17.7252 6.34167 14.1668 3.75 10.0002 3.75ZM10.0002 7.91667C10.5527 7.91667 11.0826 8.13616 11.4733 8.52686C11.864 8.91756 12.0835 9.44747 12.0835 10C12.0835 10.5525 11.864 11.0824 11.4733 11.4731C11.0826 11.8638 10.5527 12.0833 10.0002 12.0833C9.44763 12.0833 8.91772 11.8638 8.52702 11.4731C8.13632 11.0824 7.91683 10.5525 7.91683 10C7.91683 9.44747 8.13632 8.91756 8.52702 8.52686C8.91772 8.13616 9.44763 7.91667 10.0002 7.91667ZM10.0002 6.25C7.9335 6.25 6.25016 7.93333 6.25016 10C6.25016 12.0667 7.9335 13.75 10.0002 13.75C12.0668 13.75 13.7502 12.0667 13.7502 10C13.7502 7.93333 12.0668 6.25 10.0002 6.25Z" fill="black"/>
</svg>
