<svg width="20" height="20" viewBox="0 0 20 20" fill="none" xmlns="http://www.w3.org/2000/svg">
<g clip-path="url(#clip0_2_1134)">
<path d="M17.9031 8.86399C18.039 9.43501 18.1075 10.02 18.107 10.607C18.107 11.208 18.0363 11.7902 17.9031 12.35M17.9031 8.86399L13.433 9.27057M17.9031 8.86399C17.5803 7.51598 16.8906 6.28364 15.9104 5.3035C14.9303 4.32336 13.698 3.63367 12.35 3.31084M17.9031 12.35L13.433 11.9434M17.9031 12.35C17.5803 13.698 16.8906 14.9304 15.9104 15.9105C14.9303 16.8906 13.698 17.5803 12.35 17.9032M13.433 9.27057C13.6317 9.68798 13.734 10.1447 13.7323 10.607C13.734 11.0693 13.6317 11.526 13.433 11.9434M13.433 9.27057C13.1227 8.61738 12.5966 8.09124 11.9434 7.78093M12.35 3.31084L11.9434 7.78093M12.35 3.31084C11.7789 3.17491 11.1939 3.10648 10.6069 3.10696C10.02 3.10648 9.43494 3.17491 8.86392 3.31084M13.433 11.9434C13.1227 12.5966 12.5966 13.1228 11.9434 13.4331M12.35 17.9032L11.9434 13.4331M12.35 17.9032C11.7789 18.0391 11.1939 18.1075 10.6069 18.1071C10.0059 18.1071 9.42371 18.0363 8.86392 17.9032M11.9434 13.4331C11.5255 13.6304 11.0691 13.7327 10.6069 13.7324C10.1446 13.7341 9.68791 13.6318 9.2705 13.4331M11.9434 7.78093C11.526 7.58223 11.0692 7.47992 10.6069 7.48159C10.129 7.48218 9.67532 7.58943 9.2705 7.78093M9.2705 13.4331L8.86392 17.9032M9.2705 13.4331C8.61731 13.1228 8.09117 12.5966 7.78086 11.9434M8.86392 17.9032C7.51591 17.5803 6.28357 16.8906 5.30343 15.9105C4.32329 14.9304 3.6336 13.698 3.31077 12.35M3.31077 12.35L7.78086 11.9434M3.31077 12.35C3.17484 11.779 3.10641 11.194 3.10689 10.607C3.10641 10.02 3.17484 9.43501 3.31077 8.86399M7.78086 11.9434C7.58216 11.526 7.47985 11.0693 7.48152 10.607C7.47985 10.1447 7.58216 9.68798 7.78086 9.27057M7.78086 9.27057L3.31077 8.86399M7.78086 9.27057C8.09117 8.61738 8.61731 8.09124 9.2705 7.78093M3.31077 8.86399C3.6336 7.51598 4.32329 6.28364 5.30343 5.3035C6.28357 4.32336 7.51591 3.63367 8.86392 3.31084M8.86392 3.31084L9.2705 7.78093" stroke="black" stroke-width="0.75" stroke-linecap="round" stroke-linejoin="round"/>
</g>
<defs>
<clipPath id="clip0_2_1134">
<rect width="20" height="20" fill="white"/>
</clipPath>
</defs>
</svg>
