<svg width="51" height="50" viewBox="0 0 51 50" fill="none" xmlns="http://www.w3.org/2000/svg">
<path d="M22.714 28.75L18.2349 24.2708C17.8529 23.8888 17.3668 23.6979 16.7765 23.6979C16.1863 23.6979 15.7001 23.8888 15.3182 24.2708C14.9363 24.6527 14.7453 25.1388 14.7453 25.7291C14.7453 26.3194 14.9363 26.8055 15.3182 27.1875L21.2557 33.125C21.6724 33.5416 22.1585 33.75 22.714 33.75C23.2696 33.75 23.7557 33.5416 24.1724 33.125L35.9432 21.3541C36.3251 20.9722 36.5161 20.4861 36.5161 19.8958C36.5161 19.3055 36.3251 18.8194 35.9432 18.4375C35.5613 18.0555 35.0751 17.8645 34.4849 17.8645C33.8946 17.8645 33.4085 18.0555 33.0265 18.4375L22.714 28.75ZM25.6307 45.8333C22.7488 45.8333 20.0404 45.2861 17.5057 44.1916C14.971 43.0972 12.7661 41.6132 10.8911 39.7395C9.01612 37.8659 7.53209 35.6611 6.43903 33.125C5.34598 30.5888 4.79875 27.8805 4.79737 25C4.79598 22.1194 5.3432 19.4111 6.43903 16.875C7.53487 14.3388 9.01889 12.134 10.8911 10.2604C12.7633 8.38677 14.9682 6.90274 17.5057 5.80829C20.0432 4.71385 22.7515 4.16663 25.6307 4.16663C28.5099 4.16663 31.2182 4.71385 33.7557 5.80829C36.2932 6.90274 38.4981 8.38677 40.3703 10.2604C42.2425 12.134 43.7272 14.3388 44.8244 16.875C45.9217 19.4111 46.4682 22.1194 46.464 25C46.4599 27.8805 45.9126 30.5888 44.8224 33.125C43.7321 35.6611 42.2481 37.8659 40.3703 39.7395C38.4925 41.6132 36.2876 43.0979 33.7557 44.1937C31.2238 45.2895 28.5154 45.8361 25.6307 45.8333ZM25.6307 41.6666C30.2835 41.6666 34.2244 40.052 37.4536 36.8229C40.6828 33.5937 42.2974 29.6527 42.2974 25C42.2974 20.3472 40.6828 16.4062 37.4536 13.177C34.2244 9.94788 30.2835 8.33329 25.6307 8.33329C20.9779 8.33329 17.0369 9.94788 13.8078 13.177C10.5786 16.4062 8.96403 20.3472 8.96403 25C8.96403 29.6527 10.5786 33.5937 13.8078 36.8229C17.0369 40.052 20.9779 41.6666 25.6307 41.6666Z" fill="#E30613"/>
</svg>
