<svg width="51" height="50" viewBox="0 0 51 50" fill="none" xmlns="http://www.w3.org/2000/svg">
<path d="M30.3207 4.77709C30.7114 4.38652 31.2412 4.16711 31.7936 4.16711C32.346 4.16711 32.8759 4.38652 33.2665 4.77709L41.5999 13.1104C41.9904 13.5011 42.2098 14.0309 42.2098 14.5833C42.2098 15.1358 41.9904 15.6656 41.5999 16.0563L33.2665 24.3896C32.8736 24.7691 32.3474 24.9791 31.8011 24.9743C31.2549 24.9696 30.7323 24.7505 30.3461 24.3642C29.9598 23.9779 29.7407 23.4554 29.736 22.9092C29.7312 22.3629 29.9412 21.8367 30.3207 21.4438L35.0978 16.6667H10.9603C10.4078 16.6667 9.87785 16.4472 9.48715 16.0565C9.09645 15.6658 8.87695 15.1359 8.87695 14.5833C8.87695 14.0308 9.09645 13.5009 9.48715 13.1102C9.87785 12.7195 10.4078 12.5 10.9603 12.5H35.0978L30.3207 7.72292C29.9301 7.33224 29.7107 6.80243 29.7107 6.25C29.7107 5.69758 29.9301 5.16777 30.3207 4.77709ZM20.7665 25.6104C21.1571 26.0011 21.3765 26.5309 21.3765 27.0833C21.3765 27.6358 21.1571 28.1656 20.7665 28.5563L15.9895 33.3333H40.127C40.6795 33.3333 41.2094 33.5528 41.6001 33.9435C41.9908 34.3342 42.2103 34.8641 42.2103 35.4167C42.2103 35.9692 41.9908 36.4991 41.6001 36.8898C41.2094 37.2805 40.6795 37.5 40.127 37.5H15.9895L20.7665 42.2771C21.146 42.67 21.356 43.1963 21.3513 43.7425C21.3465 44.2887 21.1274 44.8113 20.7412 45.1975C20.3549 45.5838 19.8324 45.8029 19.2861 45.8077C18.7399 45.8124 18.2136 45.6024 17.8207 45.2229L9.48737 36.8896C9.09681 36.4989 8.8774 35.9691 8.8774 35.4167C8.8774 34.8642 9.09681 34.3344 9.48737 33.9438L17.8207 25.6104C18.2114 25.2199 18.7412 25.0005 19.2936 25.0005C19.846 25.0005 20.3759 25.2199 20.7665 25.6104Z" fill="#E30613"/>
</svg>
