<svg width="51" height="50" viewBox="0 0 51 50" fill="none" xmlns="http://www.w3.org/2000/svg">
<path fill-rule="evenodd" clip-rule="evenodd" d="M14.8213 16.1459C12.4731 16.1459 10.221 17.0787 8.56048 18.7392C6.9 20.3997 5.96716 22.6518 5.96716 25C5.96716 27.3483 6.9 29.6004 8.56048 31.2609C10.221 32.9214 12.4731 33.8542 14.8213 33.8542C16.0651 33.8542 16.9984 33.6313 17.7526 33.2625C18.5067 32.8959 19.1672 32.3417 19.8067 31.5625C20.9317 30.1875 21.8547 28.3167 23.0713 25.8521C23.3144 25.3591 23.5713 24.8424 23.8422 24.3021L24.5505 22.8646C25.7609 20.4042 26.8776 18.1355 28.2526 16.4584C29.1067 15.4146 30.1067 14.5355 31.3567 13.9271C32.6067 13.3188 34.0213 13.0209 35.6547 13.0209C37.5528 13.0209 39.4237 13.4719 41.1133 14.3369C42.8029 15.2018 44.2628 16.4559 45.3727 17.9957C46.4825 19.5355 47.2106 21.3171 47.4968 23.1935C47.7831 25.0699 47.6193 26.9875 47.0191 28.7882C46.4188 30.5889 45.3993 32.2212 44.0444 33.5506C42.6896 34.88 41.0382 35.8684 39.2265 36.4343C37.4147 37.0003 35.4943 37.1276 33.6237 36.8058C31.753 36.484 29.9857 35.7222 28.4672 34.5834C28.1356 34.3347 27.9165 33.9646 27.8579 33.5543C27.7993 33.1441 27.906 32.7274 28.1547 32.3959C28.4033 32.0644 28.7734 31.8452 29.1837 31.7866C29.5939 31.728 30.0106 31.8347 30.3422 32.0834C31.4645 32.9251 32.7709 33.4882 34.1535 33.726C35.5362 33.9639 36.9555 33.8698 38.2947 33.4515C39.6338 33.0331 40.8544 32.3026 41.8558 31.32C42.8572 30.3374 43.6108 29.1309 44.0545 27.8C44.4981 26.469 44.6191 25.0517 44.4076 23.6648C44.196 22.2778 43.6579 20.9611 42.8375 19.8229C42.0172 18.6848 40.9382 17.7579 39.6893 17.1186C38.4405 16.4793 37.0576 16.1459 35.6547 16.1459C34.4109 16.1459 33.4776 16.3688 32.7234 16.7375C31.9692 17.1042 31.3088 17.6584 30.6692 18.4375C29.5442 19.8125 28.6213 21.6834 27.4047 24.148C27.1616 24.641 26.9047 25.1577 26.6338 25.698L25.9255 27.1355C24.7151 29.5959 23.5984 31.8646 22.2234 33.5438C21.3692 34.5855 20.3692 35.4646 19.1192 36.073C17.8692 36.6813 16.4526 36.9792 14.8213 36.9792C12.9233 36.9789 11.0525 36.5275 9.36311 35.6624C7.67372 34.7972 6.21409 33.543 5.10449 32.0031C3.99489 30.4632 3.26709 28.6817 2.98105 26.8053C2.69501 24.929 2.85893 23.0115 3.4593 21.2109C4.05967 19.4103 5.0793 17.7782 6.43417 16.4489C7.78905 15.1197 9.44038 14.1315 11.2521 13.5656C13.0638 12.9998 14.9841 12.8725 16.8546 13.1943C18.7252 13.5162 20.4925 14.2779 22.0109 15.4167C22.1751 15.54 22.3133 15.6943 22.4178 15.871C22.5223 16.0477 22.591 16.2432 22.6199 16.4465C22.6488 16.6497 22.6374 16.8566 22.5864 17.0555C22.5353 17.2543 22.4456 17.4411 22.3224 17.6053C22.1991 17.7694 22.0447 17.9077 21.868 18.0122C21.6914 18.1167 21.4958 18.1853 21.2926 18.2142C21.0894 18.2432 20.8824 18.2318 20.6836 18.1807C20.4848 18.1297 20.298 18.04 20.1338 17.9167C18.6026 16.7645 16.7376 16.1429 14.8213 16.1459Z" fill="#E30613"/>
</svg>
