<svg width="51" height="50" viewBox="0 0 51 50" fill="none" xmlns="http://www.w3.org/2000/svg">
<path d="M21.3335 33.3333H29.6668C30.2571 33.3333 30.7522 33.1333 31.1522 32.7333C31.5522 32.3333 31.7516 31.8388 31.7502 31.25V25C31.7502 24.4097 31.5502 23.9152 31.1502 23.5166C30.7502 23.118 30.2557 22.918 29.6668 22.9166V20.8333C29.6668 19.6875 29.2592 18.7069 28.4439 17.8916C27.6286 17.0763 26.6474 16.668 25.5002 16.6666C24.3529 16.6652 23.3724 17.0736 22.5585 17.8916C21.7446 18.7097 21.3363 19.6902 21.3335 20.8333V22.9166C20.7432 22.9166 20.2488 23.1166 19.8502 23.5166C19.4516 23.9166 19.2516 24.4111 19.2502 25V31.25C19.2502 31.8402 19.4502 32.3354 19.8502 32.7354C20.2502 33.1354 20.7446 33.3347 21.3335 33.3333ZM23.4168 22.9166V20.8333C23.4168 20.243 23.6168 19.7486 24.0168 19.35C24.4168 18.9513 24.9113 18.7513 25.5002 18.75C26.0891 18.7486 26.5842 18.9486 26.9856 19.35C27.387 19.7513 27.5863 20.2458 27.5835 20.8333V22.9166H23.4168ZM25.5002 45.625C25.2571 45.625 25.0314 45.6076 24.8231 45.5729C24.6147 45.5382 24.4064 45.4861 24.1981 45.4166C19.5106 43.8541 15.7779 40.9632 13.0002 36.7437C10.2224 32.5243 8.8335 27.9847 8.8335 23.125V13.2812C8.8335 12.4132 9.08558 11.6319 9.58975 10.9375C10.0939 10.243 10.7446 9.73954 11.5418 9.42704L24.0418 4.73954C24.5279 4.56593 25.0141 4.47913 25.5002 4.47913C25.9863 4.47913 26.4724 4.56593 26.9585 4.73954L39.4585 9.42704C40.2571 9.73954 40.9085 10.243 41.4127 10.9375C41.9168 11.6319 42.1682 12.4132 42.1668 13.2812V23.125C42.1668 27.9861 40.7779 32.5263 38.0002 36.7458C35.2224 40.9652 31.4897 43.8555 26.8022 45.4166C26.5939 45.4861 26.3856 45.5382 26.1772 45.5729C25.9689 45.6076 25.7432 45.625 25.5002 45.625ZM25.5002 41.4583C29.1113 40.3125 32.0974 38.0208 34.4585 34.5833C36.8196 31.1458 38.0002 27.3263 38.0002 23.125V13.2812L25.5002 8.59371L13.0002 13.2812V23.125C13.0002 27.3263 14.1807 31.1458 16.5418 34.5833C18.9029 38.0208 21.8891 40.3125 25.5002 41.4583Z" fill="#E30613"/>
</svg>
