<svg width="76" height="75" viewBox="0 0 76 75" fill="none" xmlns="http://www.w3.org/2000/svg">
<path d="M15.7559 65.625V26.3219L32.7027 9.375H59.5059V65.625H15.7559ZM18.8809 62.5H56.3809V12.5H34.0371L18.8809 27.6562V62.5Z" fill="#E30613"/>
<path d="M36.1395 34.3939H38.0145V51.2689H36.1395V34.3939ZM32.6989 40.2251C32.0099 39.6095 31.4587 38.8554 31.0813 38.0121C30.7039 37.1688 30.5088 36.2553 30.5088 35.3314C30.5088 34.4075 30.7039 33.4939 31.0813 32.6506C31.4587 31.8073 32.0099 31.0532 32.6989 30.4376L33.9552 31.8345C33.4626 32.2742 33.0685 32.813 32.7986 33.4156C32.5288 34.0183 32.3893 34.6711 32.3893 35.3314C32.3893 35.9917 32.5288 36.6445 32.7986 37.2471C33.0685 37.8497 33.4626 38.3885 33.9552 38.8282L32.6989 40.2251ZM41.4552 40.2251L40.1989 38.8282C40.6915 38.3885 41.0856 37.8497 41.3555 37.2471C41.6253 36.6445 41.7648 35.9917 41.7648 35.3314C41.7648 34.6711 41.6253 34.0183 41.3555 33.4156C41.0856 32.813 40.6915 32.2742 40.1989 31.8345L41.4552 30.4376C42.1441 31.0532 42.6954 31.8073 43.0728 32.6506C43.4502 33.4939 43.6453 34.4075 43.6453 35.3314C43.6453 36.2553 43.4502 37.1688 43.0728 38.0121C42.6954 38.8554 42.1441 39.6095 41.4552 40.2251Z" fill="#E30613"/>
<path d="M29.9526 42.9375C28.6719 41.9769 27.6323 40.7313 26.9164 39.2994C26.2004 37.8674 25.8276 36.2885 25.8276 34.6875C25.8276 33.0865 26.2004 31.5076 26.9164 30.0756C27.6323 28.6437 28.6719 27.3981 29.9526 26.4375L31.0776 27.9375C30.0297 28.7234 29.1792 29.7425 28.5934 30.9141C28.0076 32.0857 27.7026 33.3776 27.7026 34.6875C27.7026 35.9974 28.0076 37.2893 28.5934 38.4609C29.1792 39.6325 30.0297 40.6516 31.0776 41.4375L29.9526 42.9375ZM44.2026 42.9375L43.0776 41.4375C44.1255 40.6516 44.9761 39.6325 45.5619 38.4609C46.1477 37.2893 46.4526 35.9974 46.4526 34.6875C46.4526 33.3776 46.1477 32.0857 45.5619 30.9141C44.9761 29.7425 44.1255 28.7234 43.0776 27.9375L44.2026 26.4375C45.4834 27.3981 46.5229 28.6437 47.2389 30.0756C47.9549 31.5076 48.3276 33.0865 48.3276 34.6875C48.3276 36.2885 47.9549 37.8674 47.2389 39.2994C46.5229 40.7313 45.4834 41.9769 44.2026 42.9375Z" fill="#E30613"/>
</svg>
