<svg width="76" height="75" viewBox="0 0 76 75" fill="none" xmlns="http://www.w3.org/2000/svg">
<path d="M15.7559 65.625V26.3219L32.7027 9.375H59.5059V65.625H15.7559ZM18.8809 62.5H56.3809V12.5H34.0371L18.8809 27.6562V62.5Z" fill="#E30613"/>
<path d="M37.0776 47.5C34.286 47.5 31.9214 46.5312 29.9839 44.5938C28.0464 42.6562 27.0776 40.2917 27.0776 37.5C27.0776 34.7083 28.0464 32.3437 29.9839 30.4062C31.9214 28.4687 34.286 27.5 37.0776 27.5C38.5151 27.5 39.8901 27.7967 41.2026 28.39C42.5151 28.9833 43.6401 29.8325 44.5776 30.9375V27.5H47.0776V36.25H38.3276V33.75H43.5776C42.911 32.5833 41.9997 31.6667 40.8439 31C39.6881 30.3333 38.4326 30 37.0776 30C34.9943 30 33.2235 30.7292 31.7651 32.1875C30.3068 33.6458 29.5776 35.4167 29.5776 37.5C29.5776 39.5833 30.3068 41.3542 31.7651 42.8125C33.2235 44.2708 34.9943 45 37.0776 45C38.6818 45 40.1297 44.5417 41.4214 43.625C42.7131 42.7083 43.6193 41.5 44.1401 40H46.7651C46.1818 42.2083 44.9943 44.0104 43.2026 45.4062C41.411 46.8021 39.3693 47.5 37.0776 47.5Z" fill="#E30613"/>
</svg>
