<svg width="76" height="75" viewBox="0 0 76 75" fill="none" xmlns="http://www.w3.org/2000/svg">
<path d="M15.7559 65.625V26.3219L32.7027 9.375H59.5059V65.625H15.7559ZM18.8809 62.5H56.3809V12.5H34.0371L18.8809 27.6562V62.5Z" fill="#E30613"/>
<path d="M48.8809 36.25V32.5C48.8809 31.837 48.6175 31.2011 48.1486 30.7322C47.6798 30.2634 47.0439 30 46.3809 30H38.8809M38.8809 30L42.6309 33.75M38.8809 30L42.6309 26.25M26.3809 38.75V42.5C26.3809 43.163 26.6443 43.7989 27.1131 44.2678C27.5819 44.7366 28.2178 45 28.8809 45H36.3809M36.3809 45L32.6309 41.25M36.3809 45L32.6309 48.75M26.3809 27.5C26.3809 27.1685 26.5126 26.8505 26.747 26.6161C26.9814 26.3817 27.2993 26.25 27.6309 26.25H32.6309C32.9624 26.25 33.2803 26.3817 33.5147 26.6161C33.7492 26.8505 33.8809 27.1685 33.8809 27.5V32.5C33.8809 32.8315 33.7492 33.1495 33.5147 33.3839C33.2803 33.6183 32.9624 33.75 32.6309 33.75H27.6309C27.2993 33.75 26.9814 33.6183 26.747 33.3839C26.5126 33.1495 26.3809 32.8315 26.3809 32.5V27.5ZM41.3809 42.5C41.3809 42.1685 41.5126 41.8505 41.747 41.6161C41.9814 41.3817 42.2993 41.25 42.6309 41.25H47.6309C47.9624 41.25 48.2803 41.3817 48.5147 41.6161C48.7492 41.8505 48.8809 42.1685 48.8809 42.5V47.5C48.8809 47.8315 48.7492 48.1495 48.5147 48.3839C48.2803 48.6183 47.9624 48.75 47.6309 48.75H42.6309C42.2993 48.75 41.9814 48.6183 41.747 48.3839C41.5126 48.1495 41.3809 47.8315 41.3809 47.5V42.5Z" stroke="#E30613" stroke-width="2" stroke-linecap="round" stroke-linejoin="round"/>
</svg>
